<svg id="Layer_1" data-name="Layer 1" xmlns="http://www.w3.org/2000/svg" viewBox="0 0 788.56 631.63"><title>armbuilds</title><path d="M240.59,120.18q67,0,111.16,48.43,40.75,44.2,40.76,105.07.53,150.32,0,152.71H353.07V360.5q-31,57.7-112.48,64.57-66.69,0-108.91-45.39t-42.21-106q0-60.34,40-104.81Q173.63,120.19,240.59,120.18Zm0,36.52q-46.32,0-79.66,34.41t-33.35,83.1q0,31.49,17.07,60.61T202.48,384q102.15,22.77,145.3-92.89a197.89,197.89,0,0,0-7.94-70.93,116.36,116.36,0,0,0-20.38-29.11Q286.91,156.71,240.59,156.71Z" transform="translate(-89.47 -120.18)"/><path d="M866.78,186.21q-11.25-27.39-39-42.48t-58-15.09q-40.49,4.76-51.61,11.91-16.41,8.48-26.73,17.21-21.18,22.76-27.79,39.7-12.18-26.46-24.08-39.7T606,136.59c-6.72-2.46-13.3-4.63-12.47-3.89l-20.09,32.77q17.51,1.91,30.17,10.69,16.14,11.25,27.79,30.17T643,277.66V426.39h37.32V279.24q6.08-56.37,18-72.78,30.43-38.63,73.31-41.55,22.75,0,38.9,10.72a57.78,57.78,0,0,1,22.76,28.18q6.61,17.47,6.62,64V426.39H878V267.86Q878,213.61,866.78,186.21Z" transform="translate(-89.47 -120.18)"/><path d="M567,130.93q-3.77-.75-7.51-1.25l-.24,0c-2.19-.29-4.37-.5-6.56-.66l-1.57-.11c-2.28-.14-4.56-.23-6.83-.23q-32.82.8-50.55,12.17a122,122,0,0,0-43.67,40Q430,208.32,425.21,267.6v158.8h37.05V303.33q-2.12-59.28,8.47-85.61T500,178.14q18.66-13.23,44.59-13.23c1.76,0,3.49.06,5.18.15s3.28.24,4.88.41l20.09-32.77C572.19,132,567.06,130.94,567,130.93Z" transform="translate(-89.47 -120.18)" style="fill:#22b573"/><g id="g3057"><path id="path3059" d="M569.38,668.71l-44.76-.61L514.19,460.25c-.31-8.89,7.36-16.55,16.55-16.55L555,444c8.89-.31,16.55,7.36,16.55,16.55ZM453.49,738l-.31-33.42c0-6.74,5.21-12,12.26-12.26l7.66.31c5.21-.31,11,3.07,11.65,6.74-.92,4.6,5.52,9.2,15.63,8.89,15,.31,24.83-8.89,24.52-16.55.31-2.76,0-12.88,0-12.88l45.07-.31v7.36s0,1.84.31,5.82c0,14.1,15.33,14.72,15.33,14.72,39.55-.31,67.14-28.51,67.14-28.51l7.36,6.74c-41.69,70.51-87.37,67.14-102.7,67.14h-32.5c-8,0-15.33-15.33-27.59-15.94a19.26,19.26,0,0,0-13.18,5.21c-.31,5.82-6.13,9.81-11.34,9.5l-7.05-.31C459,750.26,453.8,745,453.49,738Z" transform="translate(-89.47 -120.18)" style="fill:#22b573"/></g><path d="M249.48,519.51q21.77,0,34.54,18.24t12.77,50.49q0,32.48-12.89,50.9t-35.83,18.42A49.74,49.74,0,0,1,234.89,656a38.85,38.85,0,0,1-10.3-4.41,53.83,53.83,0,0,1-10.53-9.41h-2.83l-7.3,13.06H168V472.09h46v41.42q0,7.42-1.65,25.54h1.65q6.71-10.35,15.47-14.94A42.35,42.35,0,0,1,249.48,519.51Zm-16.83,36.13q-9.65,0-14.12,6.71t-4.47,21.06v6.48q0,16.36,4.47,23.48t14.59,7.12q8.12,0,12.47-8.29T250,587.77Q250,555.64,232.65,555.64Z" transform="translate(-89.47 -120.18)"/><path d="M399.93,655.2l-5.76-16.59h-2.71a37.46,37.46,0,0,1-16.06,14.06q-10.3,4.88-24.19,4.88-22,0-34.25-12.77t-12.24-36.07V521.86h46v72.85q0,13.06,3.71,19.77t12.18,6.71q11.88,0,16.95-9.36t5.06-31.6V521.86h46V655.2Z" transform="translate(-89.47 -120.18)"/><path d="M447.4,488.68q0-10.35,5.77-15.41t18.6-5.06q12.82,0,18.7,5.18t5.89,15.3q0,20.25-24.6,20.24Q447.4,508.92,447.4,488.68ZM494.6,655.2h-46V521.86h46Z" transform="translate(-89.47 -120.18)"/><path d="M634.2,657.55a39.89,39.89,0,0,1-24.89-8.12q-10.65-8.12-16.48-23.89T587,588.71q0-32.48,13.06-50.84T636,519.51A41.19,41.19,0,0,1,655.55,524Q664,528.46,670.91,539h.94a220.68,220.68,0,0,1-2.24-31.3V472.09H716V655.2H681.27l-9.89-16.83h-1.76Q657.73,657.55,634.2,657.55ZM653,621.19q11.06,0,15.59-6.95t4.88-21.42v-3.65q0-17.65-5.06-25.13t-15.89-7.47q-9.06,0-14.06,8.53t-5,24.3q0,15.53,5.06,23.66A16.09,16.09,0,0,0,653,621.19Z" transform="translate(-89.47 -120.18)"/><path d="M832.66,614.24q0,21.42-14.6,32.37t-41.89,10.94A182,182,0,0,1,750.4,656,109.57,109.57,0,0,1,728,650.14V613.31a138.29,138.29,0,0,0,23.48,7.76,98.76,98.76,0,0,0,22.77,3.06q14.94,0,14.94-6.83,0-3.53-4.17-6.3t-24.3-10.77q-18.36-7.53-25.66-17.13t-7.3-24.3q0-18.6,14.36-29t40.6-10.36a102.38,102.38,0,0,1,24.77,2.88,147.73,147.73,0,0,1,24.07,8.41l-12.47,29.66a140.27,140.27,0,0,0-19.42-7q-10.24-2.88-16.71-2.88-11.29,0-11.29,5.53,0,3.41,3.94,5.82t22.77,9.83q14,5.77,20.89,11.3a33.86,33.86,0,0,1,10.12,13Q832.66,603.54,832.66,614.24Z" transform="translate(-89.47 -120.18)"/></svg>